<svg height="512pt" viewBox="0 0 512 512" width="512pt" xmlns="http://www.w3.org/2000/svg"><path d="m372 0v256c0 63.960938-52.039062 116-116 116s-116-52.039062-116-116v-256h-140v256c0 68.378906 26.628906 132.667969 74.980469 181.019531 48.351562 48.351563 112.640625 74.980469 181.019531 74.980469s132.667969-26.628906 181.019531-74.980469c48.351563-48.351562 74.980469-112.640625 74.980469-181.019531v-256zm110 30v90.097656h-80v-90.097656zm-372 0v90.097656h-80v-90.097656zm305.804688 385.804688c-42.683594 42.6875-99.4375 66.195312-159.804688 66.195312s-117.121094-23.507812-159.804688-66.195312c-42.6875-42.683594-66.195312-99.4375-66.195312-159.804688v-105.902344h80v105.902344c0 80.503906 65.496094 146 146 146s146-65.496094 146-146v-105.902344h80v105.902344c0 60.367188-23.507812 117.121094-66.195312 159.804688zm0 0"/></svg>